<svg viewBox="0 0 152 161" fill="none" xmlns="http://www.w3.org/2000/svg">
<path d="M0.974976 159.5L8.9749 159.534" stroke="#333333"/>
<path d="M0.974976 0.999985H5" stroke="#333333"/>
<path d="M0.974976 54L8.9749 54.0345" stroke="#333333"/>
<path d="M53.2722 88.012H48.1482V97H46.9302V86.99H54.4902V97H53.2722V88.012ZM60.0584 96.16C60.4224 96.16 60.7537 96.0947 61.0524 95.964C61.3511 95.8333 61.6031 95.6467 61.8084 95.404C62.0137 95.1613 62.1724 94.872 62.2844 94.536C62.3964 94.1907 62.4524 93.8127 62.4524 93.402V93.304C62.4524 92.884 62.3964 92.5013 62.2844 92.156C62.1724 91.8107 62.0091 91.5167 61.7944 91.274C61.5891 91.0313 61.3371 90.8447 61.0384 90.714C60.7491 90.5833 60.4224 90.518 60.0584 90.518C59.6944 90.518 59.3631 90.5833 59.0644 90.714C58.7657 90.8447 58.5137 91.0313 58.3084 91.274C58.1031 91.5167 57.9444 91.8107 57.8324 92.156C57.7204 92.492 57.6644 92.87 57.6644 93.29V93.402C57.6644 94.242 57.8744 94.914 58.2944 95.418C58.7237 95.9127 59.3117 96.16 60.0584 96.16ZM60.0444 97.126C59.5217 97.126 59.0411 97.0327 58.6024 96.846C58.1637 96.6593 57.7857 96.4027 57.4684 96.076C57.1511 95.74 56.9037 95.3433 56.7264 94.886C56.5491 94.4287 56.4604 93.934 56.4604 93.402V93.29C56.4604 92.7393 56.5491 92.2353 56.7264 91.778C56.9131 91.3207 57.1651 90.9287 57.4824 90.602C57.7997 90.266 58.1777 90.0093 58.6164 89.832C59.0551 89.6453 59.5357 89.552 60.0584 89.552C60.5717 89.552 61.0477 89.6453 61.4864 89.832C61.9344 90.0093 62.3171 90.2613 62.6344 90.588C62.9517 90.9147 63.1991 91.3067 63.3764 91.764C63.5631 92.2213 63.6564 92.7253 63.6564 93.276V93.388C63.6564 93.9387 63.5631 94.4473 63.3764 94.914C63.1991 95.3713 62.9471 95.7633 62.6204 96.09C62.3031 96.4167 61.9251 96.6733 61.4864 96.86C61.0477 97.0373 60.5671 97.126 60.0444 97.126ZM66.5945 94.172C66.5479 94.6013 66.4872 94.9653 66.4125 95.264C66.3379 95.5627 66.2399 95.8147 66.1185 96.02H69.5485V90.63H66.8605C66.8512 90.8727 66.8372 91.1433 66.8185 91.442C66.7999 91.7313 66.7765 92.0347 66.7485 92.352C66.7299 92.6693 66.7065 92.9867 66.6785 93.304C66.6505 93.612 66.6225 93.9013 66.5945 94.172ZM65.1385 98.778H64.2005V96.02H64.7185C64.8679 95.9827 64.9845 95.908 65.0685 95.796C65.1619 95.6747 65.2365 95.53 65.2925 95.362C65.3485 95.1847 65.3952 94.9887 65.4325 94.774C65.4699 94.5593 65.5025 94.3353 65.5305 94.102C65.5772 93.6727 65.6192 93.2013 65.6565 92.688C65.7032 92.1747 65.7405 91.694 65.7685 91.246C65.8059 90.7233 65.8339 90.2007 65.8525 89.678H70.6825V96.02H71.8025V98.778H70.8645L70.7805 97H65.2225L65.1385 98.778ZM76.3139 97.126C75.8006 97.126 75.3246 97.042 74.8859 96.874C74.4566 96.6967 74.0786 96.4493 73.7519 96.132C73.4346 95.8053 73.1826 95.4133 72.9959 94.956C72.8186 94.4987 72.7299 93.9853 72.7299 93.416V93.304C72.7299 92.744 72.8233 92.2353 73.0099 91.778C73.1966 91.3113 73.4486 90.9147 73.7659 90.588C74.0926 90.2613 74.4706 90.0093 74.8999 89.832C75.3293 89.6453 75.7913 89.552 76.2859 89.552C76.6686 89.552 77.0373 89.5987 77.3919 89.692C77.7559 89.7853 78.0779 89.9347 78.3579 90.14C78.6473 90.336 78.8899 90.5973 79.0859 90.924C79.2819 91.2507 79.4079 91.6473 79.4639 92.114H78.3159C78.2226 91.5353 77.9846 91.1247 77.6019 90.882C77.2286 90.6393 76.7899 90.518 76.2859 90.518C75.9499 90.518 75.6373 90.5833 75.3479 90.714C75.0679 90.8447 74.8206 91.0313 74.6059 91.274C74.4006 91.5073 74.2373 91.7967 74.1159 92.142C73.9946 92.4873 73.9339 92.8747 73.9339 93.304V93.416C73.9339 94.3213 74.1533 95.0073 74.5919 95.474C75.0399 95.9313 75.6186 96.16 76.3279 96.16C76.5893 96.16 76.8366 96.1227 77.0699 96.048C77.3126 95.9733 77.5273 95.8613 77.7139 95.712C77.9099 95.5627 78.0686 95.376 78.1899 95.152C78.3206 94.928 78.3999 94.6667 78.4279 94.368H79.5059C79.4686 94.76 79.3613 95.1287 79.1839 95.474C79.0159 95.81 78.7919 96.0993 78.5119 96.342C78.2319 96.5847 77.9053 96.776 77.5319 96.916C77.1586 97.056 76.7526 97.126 76.3139 97.126ZM82.3383 93.262V97H81.1763V89.678H82.3383V93.094L85.3763 89.678H86.7343L83.5983 93.122L87.0003 97H85.5863L82.3383 93.262ZM90.2447 97.126C89.9087 97.126 89.5914 97.084 89.2927 97C88.994 96.916 88.7327 96.7853 88.5087 96.608C88.294 96.4307 88.1214 96.2067 87.9907 95.936C87.8694 95.6653 87.8087 95.3433 87.8087 94.97C87.8087 94.55 87.9114 94.1953 88.1167 93.906C88.322 93.6167 88.5927 93.3833 88.9287 93.206C89.274 93.0287 89.666 92.9027 90.1047 92.828C90.5527 92.744 91.01 92.702 91.4767 92.702H92.5267V92.17C92.5267 91.582 92.4054 91.162 92.1627 90.91C91.92 90.6487 91.5187 90.518 90.9587 90.518C89.9507 90.518 89.3907 90.9567 89.2787 91.834H88.1167C88.154 91.414 88.2567 91.0593 88.4247 90.77C88.602 90.4807 88.8214 90.2473 89.0827 90.07C89.3534 89.8833 89.652 89.7527 89.9787 89.678C90.3147 89.594 90.66 89.552 91.0147 89.552C91.36 89.552 91.696 89.594 92.0227 89.678C92.3494 89.7527 92.634 89.8927 92.8767 90.098C93.1194 90.294 93.3154 90.56 93.4647 90.896C93.614 91.232 93.6887 91.6567 93.6887 92.17V97H92.5267V96.076C92.256 96.4213 91.9434 96.6827 91.5887 96.86C91.234 97.0373 90.786 97.126 90.2447 97.126ZM90.3567 96.202C90.6647 96.202 90.9494 96.1647 91.2107 96.09C91.4814 96.006 91.71 95.8893 91.8967 95.74C92.0927 95.5907 92.2467 95.4087 92.3587 95.194C92.4707 94.97 92.5267 94.718 92.5267 94.438V93.528H91.5187C91.1547 93.528 90.814 93.556 90.4967 93.612C90.1887 93.6587 89.918 93.738 89.6847 93.85C89.4607 93.962 89.2834 94.1113 89.1527 94.298C89.0314 94.4753 88.9707 94.6993 88.9707 94.97C88.9707 95.3527 89.0734 95.656 89.2787 95.88C89.484 96.0947 89.8434 96.202 90.3567 96.202ZM100.605 91.582C100.605 91.75 100.577 91.918 100.521 92.086C100.475 92.254 100.4 92.4127 100.297 92.562C100.204 92.702 100.083 92.828 99.9332 92.94C99.7839 93.0427 99.6066 93.1127 99.4012 93.15C99.8586 93.2247 100.232 93.402 100.521 93.682C100.811 93.9527 100.955 94.326 100.955 94.802V94.844C100.955 95.18 100.89 95.488 100.759 95.768C100.638 96.0387 100.456 96.2767 100.213 96.482C99.9799 96.6873 99.6906 96.846 99.3452 96.958C98.9999 97.07 98.6079 97.126 98.1692 97.126C97.2826 97.126 96.5872 96.9207 96.0832 96.51C95.5886 96.09 95.3226 95.502 95.2852 94.746H96.4192C96.4659 95.1847 96.6152 95.53 96.8672 95.782C97.1286 96.034 97.5626 96.16 98.1692 96.16C98.7106 96.16 99.1072 96.0527 99.3592 95.838C99.6112 95.614 99.7372 95.306 99.7372 94.914V94.872C99.7372 94.452 99.6112 94.1533 99.3592 93.976C99.1072 93.7893 98.7292 93.696 98.2252 93.696H97.1192V92.772H98.0292C98.5146 92.772 98.8599 92.6833 99.0652 92.506C99.2799 92.3287 99.3872 92.0393 99.3872 91.638V91.596C99.3872 91.2787 99.2892 91.022 99.0932 90.826C98.8972 90.6207 98.5752 90.518 98.1272 90.518C97.7259 90.518 97.4039 90.6113 97.1612 90.798C96.9186 90.9753 96.7552 91.2647 96.6712 91.666H95.5512C95.5979 91.274 95.7006 90.9427 95.8592 90.672C96.0179 90.4013 96.2139 90.182 96.4472 90.014C96.6899 89.846 96.9606 89.7293 97.2592 89.664C97.5579 89.5893 97.8706 89.552 98.1972 89.552C98.5239 89.552 98.8319 89.594 99.1212 89.678C99.4199 89.762 99.6766 89.888 99.8912 90.056C100.115 90.224 100.288 90.434 100.409 90.686C100.54 90.9287 100.605 91.2133 100.605 91.54V91.582ZM103.967 93.262V97H102.805V89.678H103.967V93.094L107.005 89.678H108.363L105.227 93.122L108.629 97H107.215L103.967 93.262ZM110.024 97V89.678H111.186V95.32L114.924 89.678H116.086V97H114.924V91.358L111.186 97H110.024Z" fill="#333333"/>
<path d="M0.974976 108H116.974" stroke="#333333"/>
<path d="M6.164 95.564C7.04933 95.564 7.70533 95.2333 8.132 94.572C8.55867 93.9107 8.772 92.9293 8.772 91.628V91.068C8.772 89.8413 8.548 88.8867 8.1 88.204C7.652 87.5107 6.996 87.164 6.132 87.164C5.268 87.164 4.60667 87.5 4.148 88.172C3.68933 88.8333 3.46 89.804 3.46 91.084V91.66C3.46 92.9613 3.69467 93.9373 4.164 94.588C4.63333 95.2387 5.3 95.564 6.164 95.564ZM6.116 97.26C5.39067 97.26 4.72933 97.132 4.132 96.876C3.54533 96.6093 3.044 96.236 2.628 95.756C2.212 95.276 1.88667 94.6947 1.652 94.012C1.428 93.3187 1.316 92.54 1.316 91.676V91.1C1.316 90.236 1.428 89.4573 1.652 88.764C1.88667 88.0707 2.212 87.484 2.628 87.004C3.05467 86.5133 3.56133 86.14 4.148 85.884C4.73467 85.628 5.39067 85.5 6.116 85.5C6.84133 85.5 7.49733 85.628 8.084 85.884C8.67067 86.14 9.172 86.508 9.588 86.988C10.004 87.468 10.324 88.0493 10.548 88.732C10.7827 89.4147 10.9 90.188 10.9 91.052V91.628C10.9 92.492 10.788 93.2707 10.564 93.964C10.3507 94.6573 10.036 95.2493 9.62 95.74C9.21467 96.22 8.71333 96.5933 8.116 96.86C7.52933 97.1267 6.86267 97.26 6.116 97.26ZM16.5671 97.26C15.8845 97.26 15.2818 97.1693 14.7591 96.988C14.2365 96.8067 13.7938 96.556 13.4311 96.236C13.0685 95.9053 12.7858 95.516 12.5831 95.068C12.3911 94.6093 12.2845 94.108 12.2631 93.564H14.1991C14.2525 94.1613 14.4605 94.6627 14.8231 95.068C15.1858 95.4627 15.7511 95.66 16.5191 95.66C17.2658 95.66 17.8151 95.4947 18.1671 95.164C18.5191 94.8333 18.6951 94.38 18.6951 93.804C18.6951 92.556 18.0071 91.932 16.6311 91.932H15.7511V90.412H16.5671C17.2285 90.412 17.7085 90.268 18.0071 89.98C18.3165 89.692 18.4711 89.276 18.4711 88.732C18.4711 88.2627 18.3218 87.8787 18.0231 87.58C17.7351 87.2707 17.2925 87.116 16.6951 87.116C16.0871 87.116 15.5965 87.2867 15.2231 87.628C14.8498 87.9693 14.6311 88.428 14.5671 89.004H12.6791C12.7111 88.5133 12.8231 88.0547 13.0151 87.628C13.2071 87.1907 13.4738 86.8173 13.8151 86.508C14.1671 86.1987 14.5885 85.9533 15.0791 85.772C15.5698 85.5907 16.1191 85.5 16.7271 85.5C17.3245 85.5 17.8578 85.58 18.3271 85.74C18.7965 85.9 19.1911 86.1187 19.5111 86.396C19.8311 86.6733 20.0765 86.9987 20.2471 87.372C20.4178 87.7453 20.5031 88.1453 20.5031 88.572C20.5031 89.2227 20.3325 89.7507 19.9911 90.156C19.6498 90.5507 19.2018 90.8547 18.6471 91.068C19.3191 91.2173 19.8525 91.5267 20.2471 91.996C20.6525 92.4547 20.8551 93.068 20.8551 93.836C20.8551 94.3693 20.7538 94.8493 20.5511 95.276C20.3485 95.692 20.0605 96.0493 19.6871 96.348C19.3245 96.636 18.8765 96.86 18.3431 97.02C17.8098 97.18 17.2178 97.26 16.5671 97.26Z" fill="#333333"/>
</svg>
